<svg xmlns="http://www.w3.org/2000/svg" width="512" height="341.34"><path fill="#0052b4" d="M0 .003h512V341.34H0z"/><g fill="#f0f0f0"><path d="M223.397 170.666c.273-.304.543-.609.813-.916-.27.308-.546.61-.82.916zM224.922 229.788l-11.083 22.853 19.9 15.781-24.776 5.585.069 25.398-19.815-15.89-19.814 15.89.069-25.398-24.776-5.585 19.9-15.781-11.083-22.853 24.746 5.718 10.958-22.913 10.958 22.913zM404.106 249.258l-5.286 10.9 9.492 7.528-11.818 2.663.032 12.114-9.45-7.578-9.45 7.578.032-12.114-11.817-2.663 9.491-7.528-5.285-10.9 11.803 2.728 5.226-10.929 5.227 10.929zM355.483 133.319l-5.286 10.901 9.491 7.528-11.817 2.663.032 12.115-9.45-7.58-9.451 7.58.033-12.115-11.818-2.663 9.491-7.528-5.284-10.901 11.802 2.729 5.227-10.93 5.227 10.93zM404.106 67.068L398.82 77.97l9.491 7.527-11.817 2.664.032 12.114-9.45-7.58-9.45 7.58.032-12.114-11.817-2.664 9.491-7.527-5.285-10.902 11.803 2.73 5.226-10.93 5.227 10.93zM446.576 116.757l-5.284 10.9 9.491 7.527-11.818 2.664.033 12.114-9.451-7.578-9.45 7.578.032-12.114-11.817-2.664 9.491-7.527-5.286-10.9 11.803 2.728 5.227-10.929 5.227 10.929zM416.593 179.178l-10.763 7.82 4.112 12.652-10.763-7.819-10.765 7.819 4.112-12.652-10.763-7.82h13.304l4.112-12.652 4.11 12.652z"/><path d="M210.833 55.655H256v59.359h-59.103L256 147.849v22.817h-26.68l-73.494-40.826v40.826h-55.652v-48.573l-87.43 48.573H0v-30.553l45.167-25.099H0V55.655h59.103L0 22.809V.003h26.68l73.494 40.827V.003h55.652v48.573L243.256.003H256v30.553z"/></g><path fill="#d80027" d="M112 69.332H0v32h112v69.334h32v-69.334h112v-32H144V0h-32z"/><path fill="#0052b4" d="M256 154.929l-71.847-39.915h-28.327L256 170.666z"/><path fill="#f0f0f0" d="M256 154.929l-71.847-39.915h-28.327L256 170.666z"/><g fill="#d80027"><path d="M256 154.929l-71.847-39.915h-28.327L256 170.666zM0 170.666l100.174-55.652H71.846L0 154.929z"/></g><path fill="#0052b4" d="M0 15.737l71.847 39.915h28.327L0 0z"/><path fill="#f0f0f0" d="M0 15.737l71.847 39.915h28.327L0 0z"/><g fill="#d80027"><path d="M0 15.737l71.847 39.915h28.327L0 0zM256 0L155.826 55.652h28.328L256 15.737z"/></g></svg>