<svg xmlns="http://www.w3.org/2000/svg" width="512" height="341.342"><path fill="#2e52b2" d="M0 .005h512v341.337H0z"/><path fill="#f0f0f0" d="M209.931 53.331H256v64h-46.069L256 148.051v22.617h-22.628L160 121.749v48.919H96v-48.919l-73.372 48.919H0v-22.617l46.069-30.72H0v-64h46.069L0 22.622V.005h22.628L96 48.912V.005h64v48.907L233.372.005H256v22.617z"/><g fill="#d80027"><path d="M112 69.334H0v32h112v69.334h32v-69.334h112v-32H144V0h-32z"/><path d="M57.377 53.334H80L0 0v15.083zM198.623 53.334H176L256 0v15.083z"/><path d="M57.377 53.334H80L0 0v15.083zM198.623 53.334H176L256 0v15.083zM57.377 117.334H80L0 170.668v-15.082zM198.623 117.334H176l80 53.334v-15.082z"/></g><path d="M332.058 122.436v59.362c0 39.76 51.942 51.942 51.942 51.942s51.942-12.182 51.942-51.942v-59.362L384 107.595z" fill="#f3f3f3"/><path d="M435.942 126.146v-22.261H332.059v22.261h44.521v44.523h-44.521v14.84h44.521v49.664c4.479 1.586 7.421 2.277 7.421 2.277s2.942-.691 7.42-2.276v-49.665h44.523v-14.84H391.42v-44.523z" fill="#d80027"/></svg>