<svg xmlns="http://www.w3.org/2000/svg" width="512" height="341.34"><path fill="#f0f0f0" d="M0 .003h512V341.34H0z"/><g fill="#d80027"><path d="M224 138.666H0v64h224v138.666h64V202.666h224v-64H288V0h-64z"/><path d="M100.87 35.943v22.261H78.609v22.261h22.261v22.261h22.26V80.465h22.261V58.204H123.13V35.943zM388.87 35.943v22.261h-22.261v22.261h22.261v22.261h22.26V80.465h22.261V58.204H411.13V35.943zM100.87 238.606v22.261H78.609v22.261h22.261v22.261h22.26v-22.261h22.261v-22.261H123.13v-22.261zM388.87 238.606v22.261h-22.261v22.261h22.261v22.261h22.26v-22.261h22.261v-22.261H411.13v-22.261z"/></g></svg>