<svg xmlns="http://www.w3.org/2000/svg" width="512" height="341.326"><path fill="#496e2d" d="M0 0h512v341.326H0z"/><path fill="#0052b4" d="M0 341.326V0h512"/><path fill="#f0f0f0" d="M411.67 0L0 274.441v66.885h100.33L512 66.885V0z"/><path fill="#a2001d" d="M60.193 341.326H0v-40.125L451.807 0H512v40.125z"/><path fill="#ffda44" d="M177.106 136.595l-24.693-4.724-3.129 24.945-17.199-18.347-17.2 18.347-3.129-24.945-24.693 4.723 12.109-22.023-22.739-10.696 22.74-10.697-12.11-22.022 24.693 4.722 3.13-24.944 17.199 18.347 17.2-18.347 3.128 24.944 24.693-4.722-12.108 22.024 22.739 10.695-22.741 10.696z"/></svg>