<svg xmlns="http://www.w3.org/2000/svg" width="512" height="341.342"><path fill="#0052b4" d="M0 .005h512v341.337H0z"/><g fill="#d80027"><path d="M439.652 158.844l-8.87 6.444 3.388 10.427-8.869-6.444-8.871 6.444 3.388-10.427-8.87-6.444h10.963l3.39-10.428 3.388 10.428zM407.635 239.13l-13.305 9.667 5.082 15.64-13.305-9.667-13.305 9.667 5.083-15.64-13.305-9.667h16.445l5.082-15.642 5.083 15.642zM405.528 113.678l-11.088 8.054 4.235 13.034-11.087-8.056-11.088 8.056 4.235-13.034-11.087-8.054h13.704l4.236-13.036 4.236 13.036zM371.404 163.603l-13.306 9.666 5.084 15.641-13.306-9.666-13.305 9.666 5.082-15.641-13.305-9.666h16.445l5.083-15.641 5.082 15.641z"/></g><path fill="#f0f0f0" d="M210.825 55.652h45.178v59.359H196.89l59.113 32.846v22.806h-26.69l-73.484-40.826v40.826h-55.652V122.09l-87.429 48.573H.003V140.11l45.168-25.099H.003V55.652h59.103L.003 22.818V0h26.68l73.494 40.838V0h55.652v48.573L243.259 0h12.744v30.564z"/><path fill="#d80027" d="M112 69.335H0v32h112v69.334h32v-69.334h112v-32H144V.001h-32z"/><path fill="#0052b4" d="M256 154.93l-71.847-39.915h-28.327L256 170.669z"/><path fill="#f0f0f0" d="M256 154.93l-71.847-39.915h-28.327L256 170.669z"/><g fill="#d80027"><path d="M256 154.93l-71.847-39.915h-28.327L256 170.669zM0 170.669l100.174-55.654H71.846L0 154.93z"/></g><path fill="#0052b4" d="M0 15.739l71.847 39.915h28.327L0 .001z"/><path fill="#f0f0f0" d="M0 15.739l71.847 39.915h28.327L0 .001z"/><g fill="#d80027"><path d="M0 15.739l71.847 39.915h28.327L0 .001zM256 .001L155.826 55.654h28.328L256 15.739z"/></g></svg>