<svg xmlns="http://www.w3.org/2000/svg" width="512" height="341.337"><path fill="#d80027" d="M0 0h512v341.337H0z"/><path fill="#0052b4" d="M0 0h256v170.663H0z"/><g fill="#f0f0f0"><path d="M172.717 118.72l-7.234-5.255-7.233 5.255 2.763-8.503-7.233-5.254h8.94l2.763-8.504 2.764 8.504h8.939l-7.232 5.254zM132.635 66.777l-12.056-8.758-12.054 8.758 4.605-14.171-12.056-8.757h14.901l4.604-14.173 4.606 14.173h14.9l-12.055 8.757zM177.156 81.619l-12.055-8.76-12.054 8.76 4.604-14.173-12.055-8.757h14.9l4.605-14.172 4.606 14.172h14.9l-12.055 8.757zM141.964 140.981l-12.055-8.759-12.054 8.759 4.604-14.171-12.055-8.758h14.9l4.605-14.172 4.606 14.172h14.9l-12.055 8.758zM102.953 103.88l-12.054-8.76-12.055 8.76 4.604-14.173-12.055-8.757h14.9l4.606-14.173 4.605 14.173h14.9l-12.055 8.757z"/></g></svg>