<svg xmlns="http://www.w3.org/2000/svg" width="512" height="341.326"><path fill="#f0f0f0" d="M0 0h512v341.326H0z"/><g fill="#338af3"><path d="M0 0h512v48.762H0zM0 97.525h512v48.762H0zM0 195.05h512v48.762H0zM0 292.563h512v48.762H0z"/></g><path fill="#f0f0f0" d="M0 0h256v195.05H0z"/><path fill="#ffda44" d="M179.774 135.148l-28.397-5.433-3.598 28.687L128 137.304l-19.78 21.098-3.597-28.687-28.397 5.432 13.925-25.326L64 97.52l26.151-12.301-13.925-25.326 28.396 5.432 3.599-28.687L128 57.737l19.78-21.099 3.597 28.687 28.398-5.432-13.926 25.327L192 97.52l-26.151 12.301z"/></svg>