<svg xmlns="http://www.w3.org/2000/svg" width="512" height="341.337"><path fill="#f0f0f0" d="M0 0h512v341.337H0z"/><g fill="#d80027"><path d="M0 42.663h512v42.663H0zM0 128h512v42.663H0zM0 213.326h512v42.663H0zM0 298.663h512v42.663H0z"/></g><path fill="#2e52b2" d="M0 0h256v183.797H0z"/><g fill="#f0f0f0"><path d="M82.363 87.977l10.791 7.835-4.123 12.683 10.791-7.835 10.784 7.835-4.122-12.683 10.791-7.835h-13.337l-4.116-12.684-4.123 12.684zM95.699 133.749H82.363l10.791 7.836-4.123 12.683 10.791-7.836 10.784 7.836-4.122-12.683 10.791-7.836h-13.337l-4.116-12.683zM39.337 133.749H26.001l10.791 7.836-4.123 12.683 10.791-7.836 10.785 7.836-4.122-12.683 10.789-7.836H47.577l-4.117-12.683zM26.001 87.977l10.791 7.835-4.123 12.683 10.791-7.835 10.785 7.835-4.122-12.683 10.789-7.835H47.577L43.46 75.293l-4.123 12.684zM82.363 42.204l10.791 7.836-4.123 12.683 10.791-7.836 10.784 7.836-4.122-12.683 10.791-7.836h-13.337l-4.116-12.685-4.123 12.685zM26.001 42.204l10.791 7.836-4.123 12.683 10.791-7.836 10.785 7.836-4.122-12.683 10.789-7.836H47.577L43.46 29.519l-4.123 12.685zM138.725 87.977l10.79 7.835-4.121 12.683 10.789-7.835 10.786 7.835-4.123-12.683 10.791-7.835h-13.336l-4.118-12.684-4.122 12.684zM152.061 133.749h-13.336l10.79 7.836-4.121 12.683 10.789-7.836 10.786 7.836-4.123-12.683 10.791-7.836h-13.336l-4.118-12.683zM208.423 133.749h-13.335l10.789 7.836-4.122 12.683 10.791-7.836 10.785 7.836-4.123-12.683 10.791-7.836h-13.336l-4.117-12.683zM195.088 87.977l10.789 7.835-4.122 12.683 10.791-7.835 10.785 7.835-4.123-12.683 10.791-7.835h-13.336l-4.117-12.684-4.123 12.684zM138.725 42.204l10.79 7.836-4.121 12.683 10.789-7.836 10.786 7.836-4.123-12.683 10.791-7.836h-13.336l-4.118-12.685-4.122 12.685zM195.088 42.204l10.789 7.836-4.122 12.683 10.791-7.836 10.785 7.836-4.123-12.683 10.791-7.836h-13.336l-4.117-12.685-4.123 12.685z"/></g></svg>